<?xml version="1.0" encoding="UTF-8"?>
<svg version="1.1" xmlns="http://www.w3.org/2000/svg" width="96" height="96">
<path d="M0 0 C8.29853683 7.53737349 13.33485233 18.88901054 14 30 C13.8783638 35.29725664 13.59462763 40.55463787 12.33984375 45.71484375 C11.69934306 48.22442568 11.69934306 48.22442568 13.875 50.6875 C14.926875 51.8321875 14.926875 51.8321875 16 53 C18.38724663 57.77449326 17.84801892 65.22334375 16.31640625 70.23828125 C13.63305017 75.25983143 9.39540381 79.20153206 4 81 C-8.39515224 82.00948503 -8.39515224 82.00948503 -12.6875 79.0625 C-13.450625 78.381875 -14.21375 77.70125 -15 77 C-17.68911937 75.65544031 -18.90623347 76.31917621 -21.8125 77 C-34.61948933 79.44420973 -46.50272392 76.8671274 -57.3125 69.6875 C-66.71986508 62.64312235 -72.91340777 53.16654815 -75.4375 41.5625 C-77.36761465 27.733328 -74.16821474 15.34212539 -65.8359375 4.21484375 C-58.82991495 -4.23710261 -48.59897706 -10.11811673 -37.69140625 -11.81640625 C-23.17488947 -12.8066476 -11.19150327 -9.27690747 0 0 Z M-55.70703125 1.4375 C-57.42501886 3.17560192 -57.42501886 3.17560192 -57 7 C-55.58487788 8.55686132 -55.58487788 8.55686132 -53.59765625 9.8046875 C-52.50807617 10.55685547 -52.50807617 10.55685547 -51.39648438 11.32421875 C-50.24116211 12.09185547 -50.24116211 12.09185547 -49.0625 12.875 C-48.32708984 13.37902344 -47.59167969 13.88304688 -46.83398438 14.40234375 C-44.56630653 15.9510984 -42.28582643 17.47813277 -40 19 C-37.03 20.98 -34.06 22.96 -31 25 C-31 14.44 -31 3.88 -31 -7 C-40.14110961 -7 -48.43155794 -4.08285913 -55.70703125 1.4375 Z M-54 15 C-54 15.99 -54 16.98 -54 18 C-51.99582493 19.78115856 -50.03044627 21.36074419 -47.875 22.9375 C-47.30523437 23.36740234 -46.73546875 23.79730469 -46.1484375 24.24023438 C-43.36953236 26.32125538 -40.56861917 28.28069991 -37.65625 30.17578125 C-35.01249952 31.99141577 -34.06098019 33.02925547 -33 36 C-31.35 35.67 -29.7 35.34 -28 35 C-28 34.34 -28 33.68 -28 33 C-27.45472656 32.89042969 -26.90945312 32.78085937 -26.34765625 32.66796875 C-20.74464935 31.48990063 -15.3945613 29.912965 -10 28 C-10 27.01 -10 26.02 -10 25 C-15.69206204 26.19349688 -21.07648499 27.61496965 -26.54296875 29.609375 C-31.7546518 30.43794146 -35.38283977 27.85577263 -39.48828125 24.9609375 C-41.10207221 23.77335625 -42.71003133 22.5778153 -44.3125 21.375 C-45.93219622 20.17259435 -47.55321601 18.97196879 -49.17578125 17.7734375 C-49.88645752 17.24153809 -50.59713379 16.70963867 -51.3293457 16.16162109 C-52.79770464 14.90485423 -52.79770464 14.90485423 -54 15 Z M-13 51 C-15.81810618 54.34857322 -16.90415138 57.21951841 -17.4375 61.5625 C-16.7531042 66.93989559 -15.04403973 69.90740028 -11.3125 73.8125 C-7.41419713 76.38685095 -4.6596308 77.43629502 0 77 C4.50785801 75.67223091 7.36252184 73.73555172 10.4375 70.1875 C12.8933929 65.17747849 13.52006543 61.77434087 11.9375 56.375 C9.23374401 51.66523151 6.27354066 48.75784689 1 47 C-4.74510777 46.44758579 -8.61707229 47.31139747 -13 51 Z " fill="#FFFFFF" transform="translate(79,15)"/>
<path d="M0 0 C1.32 0 2.64 0 4 0 C4 2.97 4 5.94 4 9 C6.64 9 9.28 9 12 9 C12.66 10.32 13.32 11.64 14 13 C13 14 13 14 10.93359375 14.09765625 C7.46679688 14.04882812 7.46679688 14.04882812 4 14 C4 16.97 4 19.94 4 23 C2.68 23 1.36 23 0 23 C-1 22 -1 22 -1.09765625 20.15234375 C-1.04882812 17.07617188 -1.04882812 17.07617188 -1 14 C-3.97 14 -6.94 14 -10 14 C-9.67 12.35 -9.34 10.7 -9 9 C-6.36 9 -3.72 9 -1 9 C-1.020625 7.700625 -1.04125 6.40125 -1.0625 5.0625 C-1.08399454 3.70834367 -1.07148199 2.35243917 -1 1 C-0.67 0.67 -0.34 0.34 0 0 Z " fill="#FFFFFF" transform="translate(75,65)"/>
</svg>
