<?xml version="1.0" encoding="UTF-8"?>
<svg version="1.1" xmlns="http://www.w3.org/2000/svg" width="96" height="96">
<path d="M0 0 C1.04414063 -0.00644531 2.08828125 -0.01289062 3.1640625 -0.01953125 C4.24429687 -0.00019531 5.32453125 0.01914062 6.4375 0.0390625 C8.05785156 0.01005859 8.05785156 0.01005859 9.7109375 -0.01953125 C11.27714844 -0.00986328 11.27714844 -0.00986328 12.875 0 C14.29619141 0.00845947 14.29619141 0.00845947 15.74609375 0.01708984 C19.61719213 0.94764234 21.07303994 2.49232852 23.4375 5.6640625 C23.93811116 8.45690602 24.14168481 10.63033299 24.1015625 13.4140625 C24.10634613 14.14979492 24.11112976 14.88552734 24.11605835 15.64355469 C24.1194488 17.19338123 24.11030592 18.74328011 24.08935547 20.29296875 C24.06257002 22.65788036 24.08912417 25.01804752 24.12109375 27.3828125 C24.11778949 28.89323958 24.1113829 30.40366373 24.1015625 31.9140625 C24.11168365 32.6162793 24.12180481 33.31849609 24.13223267 34.04199219 C24.04332785 37.7886057 23.50277056 39.57650727 21.24365234 42.60693359 C18.11688707 44.89909683 16.69906374 45.30536272 12.875 45.328125 C11.30878906 45.33779297 11.30878906 45.33779297 9.7109375 45.34765625 C8.63070313 45.32832031 7.55046875 45.30898437 6.4375 45.2890625 C4.81714844 45.31806641 4.81714844 45.31806641 3.1640625 45.34765625 C2.11992187 45.34121094 1.07578125 45.33476563 0 45.328125 C-1.42119141 45.31966553 -1.42119141 45.31966553 -2.87109375 45.31103516 C-6.74219213 44.38048266 -8.19803994 42.83579648 -10.5625 39.6640625 C-11.06311116 36.87121898 -11.26668481 34.69779201 -11.2265625 31.9140625 C-11.23134613 31.17833008 -11.23612976 30.44259766 -11.24105835 29.68457031 C-11.2444488 28.13474377 -11.23530592 26.58484489 -11.21435547 25.03515625 C-11.18757002 22.67024464 -11.21412417 20.31007748 -11.24609375 17.9453125 C-11.24278949 16.43488542 -11.2363829 14.92446127 -11.2265625 13.4140625 C-11.23668365 12.7118457 -11.24680481 12.00962891 -11.25723267 11.28613281 C-11.16832785 7.5395193 -10.62777056 5.75161773 -8.36865234 2.72119141 C-5.24188707 0.42902817 -3.82406374 0.02276228 0 0 Z M-3.26806641 7.82177734 C-5.10123277 10.43080665 -4.95076728 12.36982746 -4.9609375 15.5390625 C-4.96480469 16.68890625 -4.96867187 17.83875 -4.97265625 19.0234375 C-4.96105469 20.22484375 -4.94945312 21.42625 -4.9375 22.6640625 C-4.94910156 23.86546875 -4.96070313 25.066875 -4.97265625 26.3046875 C-4.96878906 27.45453125 -4.96492188 28.604375 -4.9609375 29.7890625 C-4.95755371 30.84351562 -4.95416992 31.89796875 -4.95068359 32.984375 C-4.76814038 35.66620364 -4.76814038 35.66620364 -3.26806641 37.50634766 C-0.33469841 39.49747721 3.01932567 39.09380195 6.4375 39.0390625 C7.16195313 39.05066406 7.88640625 39.06226563 8.6328125 39.07421875 C12.60545039 39.09440809 12.60545039 39.09440809 16.14306641 37.50634766 C17.97623277 34.89731835 17.82576728 32.95829754 17.8359375 29.7890625 C17.83980469 28.63921875 17.84367187 27.489375 17.84765625 26.3046875 C17.83605469 25.10328125 17.82445313 23.901875 17.8125 22.6640625 C17.82410156 21.46265625 17.83570312 20.26125 17.84765625 19.0234375 C17.84378906 17.87359375 17.83992188 16.72375 17.8359375 15.5390625 C17.83255371 14.48460937 17.82916992 13.43015625 17.82568359 12.34375 C17.64314038 9.66192136 17.64314038 9.66192136 16.14306641 7.82177734 C13.20969841 5.83064779 9.85567433 6.23432305 6.4375 6.2890625 C5.71304687 6.27746094 4.98859375 6.26585937 4.2421875 6.25390625 C0.26954961 6.23371691 0.26954961 6.23371691 -3.26806641 7.82177734 Z " fill="#FFFFFF" transform="translate(22.5625,39.3359375)"/>
<path d="M0 0 C1.04414062 -0.00644531 2.08828125 -0.01289063 3.1640625 -0.01953125 C4.24429688 -0.00019531 5.32453125 0.01914063 6.4375 0.0390625 C8.05785156 0.01005859 8.05785156 0.01005859 9.7109375 -0.01953125 C11.27714844 -0.00986328 11.27714844 -0.00986328 12.875 0 C14.29619141 0.00845947 14.29619141 0.00845947 15.74609375 0.01708984 C19.61719213 0.94764234 21.07303994 2.49232852 23.4375 5.6640625 C23.93811116 8.45690602 24.14168481 10.63033299 24.1015625 13.4140625 C24.10634613 14.14979492 24.11112976 14.88552734 24.11605835 15.64355469 C24.1194488 17.19338123 24.11030592 18.74328011 24.08935547 20.29296875 C24.06257002 22.65788036 24.08912417 25.01804752 24.12109375 27.3828125 C24.11778949 28.89323958 24.1113829 30.40366373 24.1015625 31.9140625 C24.11168365 32.6162793 24.12180481 33.31849609 24.13223267 34.04199219 C24.04332785 37.7886057 23.50277056 39.57650727 21.24365234 42.60693359 C18.11688707 44.89909683 16.69906374 45.30536272 12.875 45.328125 C11.30878906 45.33779297 11.30878906 45.33779297 9.7109375 45.34765625 C8.63070312 45.32832031 7.55046875 45.30898438 6.4375 45.2890625 C4.81714844 45.31806641 4.81714844 45.31806641 3.1640625 45.34765625 C2.11992188 45.34121094 1.07578125 45.33476563 0 45.328125 C-1.42119141 45.31966553 -1.42119141 45.31966553 -2.87109375 45.31103516 C-6.74219213 44.38048266 -8.19803994 42.83579648 -10.5625 39.6640625 C-11.06311116 36.87121898 -11.26668481 34.69779201 -11.2265625 31.9140625 C-11.23134613 31.17833008 -11.23612976 30.44259766 -11.24105835 29.68457031 C-11.2444488 28.13474377 -11.23530592 26.58484489 -11.21435547 25.03515625 C-11.18757002 22.67024464 -11.21412417 20.31007748 -11.24609375 17.9453125 C-11.24278949 16.43488542 -11.2363829 14.92446127 -11.2265625 13.4140625 C-11.23668365 12.7118457 -11.24680481 12.00962891 -11.25723267 11.28613281 C-11.16832785 7.5395193 -10.62777056 5.75161773 -8.36865234 2.72119141 C-5.24188707 0.42902817 -3.82406374 0.02276228 0 0 Z M-3.26806641 7.82177734 C-5.10123277 10.43080665 -4.95076728 12.36982746 -4.9609375 15.5390625 C-4.96480469 16.68890625 -4.96867187 17.83875 -4.97265625 19.0234375 C-4.96105469 20.22484375 -4.94945312 21.42625 -4.9375 22.6640625 C-4.94910156 23.86546875 -4.96070313 25.066875 -4.97265625 26.3046875 C-4.96878906 27.45453125 -4.96492188 28.604375 -4.9609375 29.7890625 C-4.95755371 30.84351562 -4.95416992 31.89796875 -4.95068359 32.984375 C-4.76814038 35.66620364 -4.76814038 35.66620364 -3.26806641 37.50634766 C-0.33469841 39.49747721 3.01932567 39.09380195 6.4375 39.0390625 C7.16195312 39.05066406 7.88640625 39.06226563 8.6328125 39.07421875 C12.60545039 39.09440809 12.60545039 39.09440809 16.14306641 37.50634766 C17.97623277 34.89731835 17.82576728 32.95829754 17.8359375 29.7890625 C17.83980469 28.63921875 17.84367187 27.489375 17.84765625 26.3046875 C17.83605469 25.10328125 17.82445313 23.901875 17.8125 22.6640625 C17.82410156 21.46265625 17.83570312 20.26125 17.84765625 19.0234375 C17.84378906 17.87359375 17.83992188 16.72375 17.8359375 15.5390625 C17.83255371 14.48460937 17.82916992 13.43015625 17.82568359 12.34375 C17.64314038 9.66192136 17.64314038 9.66192136 16.14306641 7.82177734 C13.20969841 5.83064779 9.85567433 6.23432305 6.4375 6.2890625 C5.71304688 6.27746094 4.98859375 6.26585937 4.2421875 6.25390625 C0.26954961 6.23371691 0.26954961 6.23371691 -3.26806641 7.82177734 Z " fill="#FFFFFF" transform="translate(60.5625,11.3359375)"/>
<path d="M0 0 C1.62035156 -0.02900391 1.62035156 -0.02900391 3.2734375 -0.05859375 C8.11837298 -0.02868674 11.09713777 0.03407558 15.2109375 2.7265625 C17.40079128 6.27431688 17.66976183 8.47110203 17.625 12.625 C17.63789062 13.82125 17.65078125 15.0175 17.6640625 16.25 C17 19.625 17 19.625 15.2109375 22.5234375 C10.30645227 25.73342905 5.73533552 25.35266114 0 25.25 C-1.62035156 25.27900391 -1.62035156 25.27900391 -3.2734375 25.30859375 C-8.11837298 25.27868674 -11.09713777 25.21592442 -15.2109375 22.5234375 C-17.40079128 18.97568312 -17.66976183 16.77889797 -17.625 12.625 C-17.63789062 11.42875 -17.65078125 10.2325 -17.6640625 9 C-17 5.625 -17 5.625 -15.2109375 2.7265625 C-10.30645227 -0.48342905 -5.73533552 -0.10266114 0 0 Z M-9.9765625 7.9609375 C-11.59228866 10.58803424 -11.37534269 12.62225849 -11 15.625 C-10.03802297 17.445421 -10.03802297 17.445421 -8 18.625 C-5.23881175 18.92334873 -2.75451984 19.04411153 0 19 C0.72445312 19.01160156 1.44890625 19.02320313 2.1953125 19.03515625 C6.32311239 19.01434743 6.32311239 19.01434743 9.9765625 17.2890625 C11.59228866 14.66196576 11.37534269 12.62774151 11 9.625 C10.03802297 7.804579 10.03802297 7.804579 8 6.625 C5.23881175 6.32665127 2.75451984 6.20588847 0 6.25 C-0.72445312 6.23839844 -1.44890625 6.22679688 -2.1953125 6.21484375 C-6.32311239 6.23565257 -6.32311239 6.23565257 -9.9765625 7.9609375 Z " fill="#FFFFFF" transform="translate(67,59.375)"/>
<path d="M0 0 C1.62035156 -0.02900391 1.62035156 -0.02900391 3.2734375 -0.05859375 C8.11837298 -0.02868674 11.09713777 0.03407558 15.2109375 2.7265625 C17.40079128 6.27431688 17.66976183 8.47110203 17.625 12.625 C17.63789062 13.82125 17.65078125 15.0175 17.6640625 16.25 C17 19.625 17 19.625 15.2109375 22.5234375 C10.30645227 25.73342905 5.73533552 25.35266114 0 25.25 C-1.62035156 25.27900391 -1.62035156 25.27900391 -3.2734375 25.30859375 C-8.11837298 25.27868674 -11.09713777 25.21592442 -15.2109375 22.5234375 C-17.40079128 18.97568312 -17.66976183 16.77889797 -17.625 12.625 C-17.63789063 11.42875 -17.65078125 10.2325 -17.6640625 9 C-17 5.625 -17 5.625 -15.2109375 2.7265625 C-10.30645227 -0.48342905 -5.73533552 -0.10266114 0 0 Z M-9.9765625 7.9609375 C-11.59228866 10.58803424 -11.37534269 12.62225849 -11 15.625 C-10.03802297 17.445421 -10.03802297 17.445421 -8 18.625 C-5.23881175 18.92334873 -2.75451984 19.04411153 0 19 C0.72445313 19.01160156 1.44890625 19.02320313 2.1953125 19.03515625 C6.32311239 19.01434743 6.32311239 19.01434743 9.9765625 17.2890625 C11.59228866 14.66196576 11.37534269 12.62774151 11 9.625 C10.03802297 7.804579 10.03802297 7.804579 8 6.625 C5.23881175 6.32665127 2.75451984 6.20588847 0 6.25 C-0.72445313 6.23839844 -1.44890625 6.22679687 -2.1953125 6.21484375 C-6.32311239 6.23565257 -6.32311239 6.23565257 -9.9765625 7.9609375 Z " fill="#FFFFFF" transform="translate(29,11.375)"/>
</svg>
