<svg width="164" height="38" viewBox="0 0 164 38" fill="none" xmlns="http://www.w3.org/2000/svg">
<g filter="url(#filter0_dd_51_2271)">
<rect x="3.1" y="2.1" width="31.8" height="31.8" rx="7.9" fill="white"/>
<rect x="3.1" y="2.1" width="31.8" height="31.8" rx="7.9" fill="url(#paint0_linear_51_2271)"/>
<rect x="3.1" y="2.1" width="31.8" height="31.8" rx="7.9" stroke="#A1A0B8" stroke-width="0.2"/>
<path d="M18.4379 14.4997C22.7939 12.7672 27.5576 14.1354 29.7206 16.2302C30.1894 16.684 30.5874 17.1444 30.9283 17.6021C31.1228 16.5276 31.1386 15.4574 30.9515 14.4224C30.268 10.6434 26.7028 8.50251 23.5066 9.60838C20.3248 10.7093 19.0838 12.849 19.0838 12.849C19.0838 12.849 17.8428 10.7093 14.661 9.60838C11.4646 8.50251 7.89939 10.6436 7.21616 14.4224C6.71177 17.2113 7.66692 20.2561 9.69369 22.9467C10.1206 23.0901 10.568 23.1978 11.042 23.2599C13.8812 23.6332 14.9018 22.8739 16.1012 22.3655C16.8976 22.0282 17.4967 22.4111 17.4677 22.6795C17.4225 23.0955 15.8527 23.8064 16.1893 23.9557C17.5184 24.5454 19.1552 24.5503 20.3886 23.4969C21.9214 22.1881 22.4948 23.0828 22.4948 23.0828C22.4948 23.0828 21.7336 25.0245 19.4415 25.9886C17.5291 26.793 15.5252 26.9912 13.6941 26.7852C15.2734 27.9015 17.0868 28.8373 19.0838 29.5052C24.7932 27.5953 29.0109 23.504 30.4979 19.2265C29.4905 18.2326 28.255 17.6165 26.7822 17.3932C23.9508 16.9639 22.9155 17.7032 21.7062 18.1877C20.9032 18.5095 20.3118 18.1147 20.3463 17.8468C20.3995 17.4317 21.9833 16.752 21.6495 16.5959C20.3324 15.9802 18.6959 15.9429 17.4419 16.9717C15.8836 18.2501 15.328 17.3443 15.328 17.3443C15.328 17.3443 16.1272 15.4184 18.4379 14.4997ZM17.3543 19.8221H18.4542V18.7221H19.713V19.8221H20.8129V21.0808H19.713V22.1808H18.4542V21.0808H17.3543V19.8221Z" fill="url(#paint1_linear_51_2271)"/>
<path d="M17.3543 19.8221H18.4542V18.7221H19.713V19.8221H20.8129V21.0808H19.7212C21.3431 21.9004 24.3217 23.1196 27.9011 23.6621C29.079 22.2687 29.9647 20.7598 30.4977 19.2265C29.4903 18.2326 28.2547 17.6165 26.782 17.3932C23.9505 16.964 22.9153 17.7032 21.7059 18.1877C20.9029 18.5095 20.3116 18.1147 20.3461 17.8468C20.3993 17.4317 21.9831 16.7521 21.6492 16.5959C20.3322 15.9802 18.6957 15.9429 17.4417 16.9718C15.8834 18.2501 15.3277 17.3443 15.3277 17.3443C15.3277 17.3443 16.1272 15.4182 18.4377 14.4992C22.7936 12.7668 27.5573 14.1349 29.7204 16.2297C30.1891 16.6835 30.5872 17.144 30.9281 17.6016C31.1225 16.5271 31.1384 15.4569 30.9513 14.4219C30.2678 10.6429 26.7026 8.50205 23.5064 9.60792C20.3246 10.7088 19.0836 12.8485 19.0836 12.8485C19.0836 12.8485 17.8426 10.7088 14.6608 9.60792C12.8353 8.9762 10.8901 9.40523 9.42957 10.5921C10.1156 12.0611 10.9194 13.4337 13.2088 16.1943C15.0702 18.4391 17.3543 19.8221 17.3543 19.8221Z" fill="url(#paint2_linear_51_2271)"/>
<rect x="18.452" y="18.7137" width="1.28038" height="3.46819" fill="#FEB21A"/>
<rect x="17.34" y="21.0858" width="1.27603" height="3.48" transform="rotate(-90 17.34 21.0858)" fill="#FEB21A"/>
</g>
<path d="M46.728 28V10.12H49.848L56.544 19.216H55.056L61.608 10.12H64.728V28H61.44V13.84L62.712 14.152L55.92 23.2H55.536L48.912 14.152L49.992 13.84V28H46.728ZM74.0779 28.288C72.7339 28.288 71.5579 27.984 70.5499 27.376C69.5419 26.768 68.7579 25.944 68.1979 24.904C67.6379 23.864 67.3579 22.712 67.3579 21.448C67.3579 20.136 67.6379 18.976 68.1979 17.968C68.7739 16.944 69.5499 16.136 70.5259 15.544C71.5179 14.952 72.6219 14.656 73.8379 14.656C74.8619 14.656 75.7579 14.824 76.5259 15.16C77.3099 15.496 77.9739 15.96 78.5179 16.552C79.0619 17.144 79.4779 17.824 79.7659 18.592C80.0539 19.344 80.1979 20.16 80.1979 21.04C80.1979 21.264 80.1819 21.496 80.1499 21.736C80.1339 21.976 80.0939 22.184 80.0299 22.36H69.9499V19.96H78.2539L76.7659 21.088C76.9099 20.352 76.8699 19.696 76.6459 19.12C76.4379 18.544 76.0859 18.088 75.5899 17.752C75.1099 17.416 74.5259 17.248 73.8379 17.248C73.1819 17.248 72.5979 17.416 72.0859 17.752C71.5739 18.072 71.1819 18.552 70.9099 19.192C70.6539 19.816 70.5579 20.576 70.6219 21.472C70.5579 22.272 70.6619 22.984 70.9339 23.608C71.2219 24.216 71.6379 24.688 72.1819 25.024C72.7419 25.36 73.3819 25.528 74.1019 25.528C74.8219 25.528 75.4299 25.376 75.9259 25.072C76.4379 24.768 76.8379 24.36 77.1259 23.848L79.6699 25.096C79.4139 25.72 79.0139 26.272 78.4699 26.752C77.9259 27.232 77.2779 27.608 76.5259 27.88C75.7899 28.152 74.9739 28.288 74.0779 28.288ZM88.6532 28.288C87.3892 28.288 86.2612 27.992 85.2692 27.4C84.2772 26.792 83.4932 25.968 82.9172 24.928C82.3412 23.888 82.0532 22.736 82.0532 21.472C82.0532 20.192 82.3412 19.04 82.9172 18.016C83.4932 16.992 84.2772 16.176 85.2692 15.568C86.2772 14.96 87.3972 14.656 88.6292 14.656C89.6212 14.656 90.5012 14.856 91.2692 15.256C92.0532 15.64 92.6692 16.184 93.1172 16.888L92.6372 17.536V9.832H95.7812V28H92.8052V25.48L93.1412 26.104C92.6932 26.808 92.0692 27.352 91.2692 27.736C90.4692 28.104 89.5972 28.288 88.6532 28.288ZM88.9892 25.408C89.7092 25.408 90.3412 25.24 90.8852 24.904C91.4292 24.568 91.8532 24.104 92.1572 23.512C92.4772 22.92 92.6372 22.24 92.6372 21.472C92.6372 20.72 92.4772 20.048 92.1572 19.456C91.8532 18.848 91.4292 18.376 90.8852 18.04C90.3412 17.704 89.7092 17.536 88.9892 17.536C88.2852 17.536 87.6532 17.712 87.0932 18.064C86.5332 18.4 86.0932 18.864 85.7732 19.456C85.4692 20.032 85.3172 20.704 85.3172 21.472C85.3172 22.24 85.4692 22.92 85.7732 23.512C86.0932 24.104 86.5332 24.568 87.0932 24.904C87.6532 25.24 88.2852 25.408 88.9892 25.408ZM98.7062 28V14.944H101.85V28H98.7062ZM98.7062 13.48V10.12H101.85V13.48H98.7062ZM113.417 28.288C112.137 28.288 110.953 28.056 109.865 27.592C108.793 27.128 107.849 26.48 107.033 25.648C106.233 24.816 105.609 23.84 105.161 22.72C104.713 21.6 104.489 20.376 104.489 19.048C104.489 17.72 104.705 16.496 105.137 15.376C105.585 14.24 106.209 13.264 107.009 12.448C107.825 11.616 108.777 10.976 109.865 10.528C110.953 10.064 112.137 9.832 113.417 9.832C114.697 9.832 115.841 10.048 116.849 10.48C117.873 10.912 118.737 11.488 119.441 12.208C120.145 12.912 120.649 13.688 120.953 14.536L118.025 15.904C117.689 15.008 117.121 14.272 116.321 13.696C115.521 13.104 114.553 12.808 113.417 12.808C112.297 12.808 111.305 13.072 110.441 13.6C109.593 14.128 108.929 14.856 108.449 15.784C107.985 16.712 107.753 17.8 107.753 19.048C107.753 20.296 107.985 21.392 108.449 22.336C108.929 23.264 109.593 23.992 110.441 24.52C111.305 25.048 112.297 25.312 113.417 25.312C114.553 25.312 115.521 25.024 116.321 24.448C117.121 23.856 117.689 23.112 118.025 22.216L120.953 23.584C120.649 24.432 120.145 25.216 119.441 25.936C118.737 26.64 117.873 27.208 116.849 27.64C115.841 28.072 114.697 28.288 113.417 28.288ZM127.065 28.288C126.153 28.288 125.361 28.136 124.689 27.832C124.017 27.528 123.497 27.096 123.129 26.536C122.761 25.96 122.577 25.296 122.577 24.544C122.577 23.824 122.737 23.184 123.057 22.624C123.377 22.048 123.873 21.568 124.545 21.184C125.217 20.8 126.065 20.528 127.089 20.368L131.361 19.672V22.072L127.689 22.696C127.065 22.808 126.601 23.008 126.297 23.296C125.993 23.584 125.841 23.96 125.841 24.424C125.841 24.872 126.009 25.232 126.345 25.504C126.697 25.76 127.129 25.888 127.641 25.888C128.297 25.888 128.873 25.752 129.369 25.48C129.881 25.192 130.273 24.8 130.545 24.304C130.833 23.808 130.977 23.264 130.977 22.672V19.312C130.977 18.752 130.753 18.288 130.305 17.92C129.873 17.536 129.297 17.344 128.577 17.344C127.905 17.344 127.305 17.528 126.777 17.896C126.265 18.248 125.889 18.72 125.649 19.312L123.081 18.064C123.337 17.376 123.737 16.784 124.281 16.288C124.841 15.776 125.497 15.376 126.249 15.088C127.001 14.8 127.817 14.656 128.697 14.656C129.769 14.656 130.713 14.856 131.529 15.256C132.345 15.64 132.977 16.184 133.425 16.888C133.889 17.576 134.121 18.384 134.121 19.312V28H131.145V25.768L131.817 25.72C131.481 26.28 131.081 26.752 130.617 27.136C130.153 27.504 129.625 27.792 129.033 28C128.441 28.192 127.785 28.288 127.065 28.288ZM137.027 28V9.832H140.171V28H137.027ZM143.073 28V9.832H146.217V28H143.073Z" fill="white"/>
<defs>
<filter id="filter0_dd_51_2271" x="0" y="0" width="38" height="38" filterUnits="userSpaceOnUse" color-interpolation-filters="sRGB">
<feFlood flood-opacity="0" result="BackgroundImageFix"/>
<feColorMatrix in="SourceAlpha" type="matrix" values="0 0 0 0 0 0 0 0 0 0 0 0 0 0 0 0 0 0 127 0" result="hardAlpha"/>
<feOffset dy="1"/>
<feGaussianBlur stdDeviation="1"/>
<feColorMatrix type="matrix" values="0 0 0 0 0.0627451 0 0 0 0 0.0941176 0 0 0 0 0.156863 0 0 0 0.06 0"/>
<feBlend mode="normal" in2="BackgroundImageFix" result="effect1_dropShadow_51_2271"/>
<feColorMatrix in="SourceAlpha" type="matrix" values="0 0 0 0 0 0 0 0 0 0 0 0 0 0 0 0 0 0 127 0" result="hardAlpha"/>
<feOffset dy="1"/>
<feGaussianBlur stdDeviation="1.5"/>
<feColorMatrix type="matrix" values="0 0 0 0 0.0627451 0 0 0 0 0.0941176 0 0 0 0 0.156863 0 0 0 0.1 0"/>
<feBlend mode="normal" in2="effect1_dropShadow_51_2271" result="effect2_dropShadow_51_2271"/>
<feBlend mode="normal" in="SourceGraphic" in2="effect2_dropShadow_51_2271" result="shape"/>
</filter>
<linearGradient id="paint0_linear_51_2271" x1="19" y1="2" x2="19" y2="34" gradientUnits="userSpaceOnUse">
<stop stop-color="#9D9CB5"/>
<stop offset="1" stop-color="white"/>
</linearGradient>
<linearGradient id="paint1_linear_51_2271" x1="12.7033" y1="26.5516" x2="27.9181" y2="7.89481" gradientUnits="userSpaceOnUse">
<stop offset="0.0947764" stop-color="#ED3127"/>
<stop offset="0.192826" stop-color="#7E5C78"/>
<stop offset="0.249249" stop-color="#0F86C8"/>
<stop offset="0.326217" stop-color="#134686"/>
</linearGradient>
<linearGradient id="paint2_linear_51_2271" x1="12.4325" y1="25.7392" x2="27.9108" y2="7.88202" gradientUnits="userSpaceOnUse">
<stop offset="0.459783" stop-color="#134686"/>
<stop offset="0.547518" stop-color="#803C57"/>
<stop offset="0.745699" stop-color="#ED3127"/>
</linearGradient>
</defs>
</svg>
