<svg width="166" height="38" viewBox="0 0 166 38" fill="none" xmlns="http://www.w3.org/2000/svg">
<g filter="url(#filter0_dd_89_1919)">
<g filter="url(#filter1_dd_89_1919)">
<path d="M27 2.10001H11C6.63693 2.10001 3.09998 5.63696 3.09998 10V26C3.09998 30.3631 6.63693 33.9 11 33.9H27C31.363 33.9 34.9 30.3631 34.9 26V10C34.9 5.63696 31.363 2.10001 27 2.10001Z" fill="white"/>
<path d="M27 2.10001H11C6.63693 2.10001 3.09998 5.63696 3.09998 10V26C3.09998 30.3631 6.63693 33.9 11 33.9H27C31.363 33.9 34.9 30.3631 34.9 26V10C34.9 5.63696 31.363 2.10001 27 2.10001Z" fill="url(#paint0_linear_89_1919)"/>
<path d="M27 2.10001H11C6.63693 2.10001 3.09998 5.63696 3.09998 10V26C3.09998 30.3631 6.63693 33.9 11 33.9H27C31.363 33.9 34.9 30.3631 34.9 26V10C34.9 5.63696 31.363 2.10001 27 2.10001Z" stroke="#A1A0B8" stroke-width="0.2"/>
<path d="M18.4379 14.4997C22.7939 12.7672 27.5576 14.1354 29.7206 16.2302C30.1894 16.684 30.5874 17.1444 30.9283 17.6021C31.1228 16.5276 31.1386 15.4574 30.9515 14.4224C30.268 10.6434 26.7028 8.50251 23.5066 9.60838C20.3248 10.7093 19.0838 12.849 19.0838 12.849C19.0838 12.849 17.8428 10.7093 14.661 9.60838C11.4646 8.50251 7.89935 10.6436 7.21612 14.4224C6.71173 17.2113 7.66688 20.2561 9.69365 22.9467C10.1206 23.0901 10.568 23.1978 11.042 23.2599C13.8812 23.6332 14.9018 22.8739 16.1012 22.3655C16.8976 22.0282 17.4967 22.4111 17.4677 22.6795C17.4225 23.0955 15.8527 23.8064 16.1893 23.9557C17.5184 24.5454 19.1552 24.5503 20.3886 23.4969C21.9214 22.1881 22.4948 23.0828 22.4948 23.0828C22.4948 23.0828 21.7336 25.0245 19.4415 25.9886C17.5291 26.793 15.5252 26.9912 13.6941 26.7852C15.2734 27.9015 17.0868 28.8373 19.0838 29.5052C24.7932 27.5953 29.0109 23.504 30.4979 19.2265C29.4905 18.2326 28.255 17.6165 26.7822 17.3932C23.9508 16.9639 22.9155 17.7032 21.7062 18.1877C20.9032 18.5095 20.3118 18.1147 20.3463 17.8468C20.3995 17.4317 21.9833 16.752 21.6495 16.5959C20.3324 15.9802 18.6959 15.9429 17.4419 16.9717C15.8836 18.2501 15.328 17.3443 15.328 17.3443C15.328 17.3443 16.1272 15.4184 18.4379 14.4997ZM17.3543 19.8221H18.4542V18.7221H19.713V19.8221H20.8129V21.0808H19.713V22.1808H18.4542V21.0808H17.3543V19.8221Z" fill="url(#paint1_linear_89_1919)"/>
<path d="M17.3543 19.8221H18.4542V18.7221H19.713V19.8221H20.8129V21.0808H19.7212C21.3431 21.9004 24.3217 23.1196 27.9011 23.6621C29.079 22.2687 29.9647 20.7598 30.4977 19.2265C29.4903 18.2326 28.2547 17.6165 26.782 17.3932C23.9505 16.964 22.9153 17.7032 21.7059 18.1877C20.9029 18.5095 20.3116 18.1147 20.3461 17.8468C20.3993 17.4317 21.9831 16.7521 21.6492 16.5959C20.3322 15.9802 18.6957 15.9429 17.4417 16.9718C15.8834 18.2501 15.3277 17.3443 15.3277 17.3443C15.3277 17.3443 16.1272 15.4182 18.4377 14.4992C22.7936 12.7668 27.5573 14.1349 29.7204 16.2297C30.1891 16.6835 30.5872 17.144 30.9281 17.6016C31.1225 16.5271 31.1384 15.4569 30.9513 14.4219C30.2678 10.6429 26.7026 8.50205 23.5064 9.60792C20.3246 10.7088 19.0836 12.8485 19.0836 12.8485C19.0836 12.8485 17.8426 10.7088 14.6608 9.60792C12.8353 8.9762 10.8901 9.40524 9.42957 10.5921C10.1156 12.0611 10.9194 13.4337 13.2088 16.1943C15.0702 18.4391 17.3543 19.8221 17.3543 19.8221Z" fill="url(#paint2_linear_89_1919)"/>
<path d="M19.7323 18.7137H18.452V22.1819H19.7323V18.7137Z" fill="#FEB21A"/>
<path d="M17.34 19.8098V21.0858H20.82V19.8098H17.34Z" fill="#FEB21A"/>
</g>
</g>
<path d="M46.728 28V10.12H49.848L56.544 19.216H55.056L61.608 10.12H64.728V28H61.44V13.84L62.712 14.152L55.92 23.2H55.536L48.912 14.152L49.992 13.84V28H46.728ZM74.0779 28.288C72.7339 28.288 71.5579 27.984 70.5499 27.376C69.5419 26.768 68.7579 25.944 68.1979 24.904C67.6379 23.864 67.3579 22.712 67.3579 21.448C67.3579 20.136 67.6379 18.976 68.1979 17.968C68.7739 16.944 69.5499 16.136 70.5259 15.544C71.5179 14.952 72.6219 14.656 73.8379 14.656C74.8619 14.656 75.7579 14.824 76.5259 15.16C77.3099 15.496 77.9739 15.96 78.5179 16.552C79.0619 17.144 79.4779 17.824 79.7659 18.592C80.0539 19.344 80.1979 20.16 80.1979 21.04C80.1979 21.264 80.1819 21.496 80.1499 21.736C80.1339 21.976 80.0939 22.184 80.0299 22.36H69.9499V19.96H78.2539L76.7659 21.088C76.9099 20.352 76.8699 19.696 76.6459 19.12C76.4379 18.544 76.0859 18.088 75.5899 17.752C75.1099 17.416 74.5259 17.248 73.8379 17.248C73.1819 17.248 72.5979 17.416 72.0859 17.752C71.5739 18.072 71.1819 18.552 70.9099 19.192C70.6539 19.816 70.5579 20.576 70.6219 21.472C70.5579 22.272 70.6619 22.984 70.9339 23.608C71.2219 24.216 71.6379 24.688 72.1819 25.024C72.7419 25.36 73.3819 25.528 74.1019 25.528C74.8219 25.528 75.4299 25.376 75.9259 25.072C76.4379 24.768 76.8379 24.36 77.1259 23.848L79.6699 25.096C79.4139 25.72 79.0139 26.272 78.4699 26.752C77.9259 27.232 77.2779 27.608 76.5259 27.88C75.7899 28.152 74.9739 28.288 74.0779 28.288ZM88.6532 28.288C87.3892 28.288 86.2612 27.992 85.2692 27.4C84.2772 26.792 83.4932 25.968 82.9172 24.928C82.3412 23.888 82.0532 22.736 82.0532 21.472C82.0532 20.192 82.3412 19.04 82.9172 18.016C83.4932 16.992 84.2772 16.176 85.2692 15.568C86.2772 14.96 87.3972 14.656 88.6292 14.656C89.6212 14.656 90.5012 14.856 91.2692 15.256C92.0532 15.64 92.6692 16.184 93.1172 16.888L92.6372 17.536V9.832H95.7812V28H92.8052V25.48L93.1412 26.104C92.6932 26.808 92.0692 27.352 91.2692 27.736C90.4692 28.104 89.5972 28.288 88.6532 28.288ZM88.9892 25.408C89.7092 25.408 90.3412 25.24 90.8852 24.904C91.4292 24.568 91.8532 24.104 92.1572 23.512C92.4772 22.92 92.6372 22.24 92.6372 21.472C92.6372 20.72 92.4772 20.048 92.1572 19.456C91.8532 18.848 91.4292 18.376 90.8852 18.04C90.3412 17.704 89.7092 17.536 88.9892 17.536C88.2852 17.536 87.6532 17.712 87.0932 18.064C86.5332 18.4 86.0932 18.864 85.7732 19.456C85.4692 20.032 85.3172 20.704 85.3172 21.472C85.3172 22.24 85.4692 22.92 85.7732 23.512C86.0932 24.104 86.5332 24.568 87.0932 24.904C87.6532 25.24 88.2852 25.408 88.9892 25.408ZM98.7062 28V14.944H101.85V28H98.7062ZM98.7062 13.48V10.12H101.85V13.48H98.7062ZM108.185 28V13H103.553V10.12H116.033V13H111.473V28H108.185ZM116.331 28V14.944H119.283V17.848L119.043 17.416C119.347 16.44 119.819 15.76 120.459 15.376C121.115 14.992 121.899 14.8 122.811 14.8H123.579V17.584H122.451C121.555 17.584 120.835 17.864 120.291 18.424C119.747 18.968 119.475 19.736 119.475 20.728V28H116.331ZM129.268 28.288C128.356 28.288 127.564 28.136 126.892 27.832C126.22 27.528 125.7 27.096 125.332 26.536C124.964 25.96 124.78 25.296 124.78 24.544C124.78 23.824 124.94 23.184 125.26 22.624C125.58 22.048 126.076 21.568 126.748 21.184C127.42 20.8 128.268 20.528 129.292 20.368L133.564 19.672V22.072L129.892 22.696C129.268 22.808 128.804 23.008 128.5 23.296C128.196 23.584 128.044 23.96 128.044 24.424C128.044 24.872 128.212 25.232 128.548 25.504C128.9 25.76 129.332 25.888 129.844 25.888C130.5 25.888 131.076 25.752 131.572 25.48C132.084 25.192 132.476 24.8 132.748 24.304C133.036 23.808 133.18 23.264 133.18 22.672V19.312C133.18 18.752 132.956 18.288 132.508 17.92C132.076 17.536 131.5 17.344 130.78 17.344C130.108 17.344 129.508 17.528 128.98 17.896C128.468 18.248 128.092 18.72 127.852 19.312L125.284 18.064C125.54 17.376 125.94 16.784 126.484 16.288C127.044 15.776 127.7 15.376 128.452 15.088C129.204 14.8 130.02 14.656 130.9 14.656C131.972 14.656 132.916 14.856 133.732 15.256C134.548 15.64 135.18 16.184 135.628 16.888C136.092 17.576 136.324 18.384 136.324 19.312V28H133.348V25.768L134.02 25.72C133.684 26.28 133.284 26.752 132.82 27.136C132.356 27.504 131.828 27.792 131.236 28C130.644 28.192 129.988 28.288 129.268 28.288ZM145.518 28.288C144.222 28.288 143.054 27.992 142.014 27.4C140.99 26.792 140.182 25.976 139.59 24.952C138.998 23.912 138.702 22.744 138.702 21.448C138.702 20.152 138.998 18.992 139.59 17.968C140.182 16.944 140.99 16.136 142.014 15.544C143.054 14.952 144.222 14.656 145.518 14.656C146.446 14.656 147.31 14.824 148.11 15.16C148.91 15.48 149.598 15.928 150.174 16.504C150.766 17.064 151.19 17.736 151.446 18.52L148.686 19.72C148.446 19.064 148.038 18.536 147.462 18.136C146.902 17.736 146.254 17.536 145.518 17.536C144.83 17.536 144.214 17.704 143.67 18.04C143.142 18.376 142.726 18.84 142.422 19.432C142.118 20.024 141.966 20.704 141.966 21.472C141.966 22.24 142.118 22.92 142.422 23.512C142.726 24.104 143.142 24.568 143.67 24.904C144.214 25.24 144.83 25.408 145.518 25.408C146.27 25.408 146.926 25.208 147.486 24.808C148.046 24.408 148.446 23.872 148.686 23.2L151.446 24.448C151.19 25.184 150.774 25.848 150.198 26.44C149.622 27.016 148.934 27.472 148.134 27.808C147.334 28.128 146.462 28.288 145.518 28.288ZM153.831 28V9.832H156.975V21.736L155.775 21.376L161.919 14.944H165.831L161.007 20.2L165.927 28H162.327L158.055 21.232L159.927 20.848L155.991 25.072L156.975 23.152V28H153.831Z" fill="white"/>
<defs>
<filter id="filter0_dd_89_1919" x="0" y="0" width="38" height="38" filterUnits="userSpaceOnUse" color-interpolation-filters="sRGB">
<feFlood flood-opacity="0" result="BackgroundImageFix"/>
<feColorMatrix in="SourceAlpha" type="matrix" values="0 0 0 0 0 0 0 0 0 0 0 0 0 0 0 0 0 0 127 0" result="hardAlpha"/>
<feOffset dy="1"/>
<feGaussianBlur stdDeviation="1"/>
<feColorMatrix type="matrix" values="0 0 0 0 0.0627451 0 0 0 0 0.0941176 0 0 0 0 0.156863 0 0 0 0.06 0"/>
<feBlend mode="normal" in2="BackgroundImageFix" result="effect1_dropShadow_89_1919"/>
<feColorMatrix in="SourceAlpha" type="matrix" values="0 0 0 0 0 0 0 0 0 0 0 0 0 0 0 0 0 0 127 0" result="hardAlpha"/>
<feOffset dy="1"/>
<feGaussianBlur stdDeviation="1.5"/>
<feColorMatrix type="matrix" values="0 0 0 0 0.0627451 0 0 0 0 0.0941176 0 0 0 0 0.156863 0 0 0 0.1 0"/>
<feBlend mode="normal" in2="effect1_dropShadow_89_1919" result="effect2_dropShadow_89_1919"/>
<feBlend mode="normal" in="SourceGraphic" in2="effect2_dropShadow_89_1919" result="shape"/>
</filter>
<filter id="filter1_dd_89_1919" x="0" y="0" width="38" height="38" filterUnits="userSpaceOnUse" color-interpolation-filters="sRGB">
<feFlood flood-opacity="0" result="BackgroundImageFix"/>
<feColorMatrix in="SourceAlpha" type="matrix" values="0 0 0 0 0 0 0 0 0 0 0 0 0 0 0 0 0 0 127 0" result="hardAlpha"/>
<feOffset dy="1"/>
<feGaussianBlur stdDeviation="1"/>
<feColorMatrix type="matrix" values="0 0 0 0 0.0627451 0 0 0 0 0.0941176 0 0 0 0 0.156863 0 0 0 0.06 0"/>
<feBlend mode="normal" in2="BackgroundImageFix" result="effect1_dropShadow_89_1919"/>
<feColorMatrix in="SourceAlpha" type="matrix" values="0 0 0 0 0 0 0 0 0 0 0 0 0 0 0 0 0 0 127 0" result="hardAlpha"/>
<feOffset dy="1"/>
<feGaussianBlur stdDeviation="1.5"/>
<feColorMatrix type="matrix" values="0 0 0 0 0.0627451 0 0 0 0 0.0941176 0 0 0 0 0.156863 0 0 0 0.1 0"/>
<feBlend mode="normal" in2="effect1_dropShadow_89_1919" result="effect2_dropShadow_89_1919"/>
<feBlend mode="normal" in="SourceGraphic" in2="effect2_dropShadow_89_1919" result="shape"/>
</filter>
<linearGradient id="paint0_linear_89_1919" x1="19" y1="2.00001" x2="19" y2="34" gradientUnits="userSpaceOnUse">
<stop stop-color="#9D9CB5"/>
<stop offset="1" stop-color="white"/>
</linearGradient>
<linearGradient id="paint1_linear_89_1919" x1="12.7033" y1="26.5516" x2="27.9181" y2="7.89481" gradientUnits="userSpaceOnUse">
<stop offset="0.0947764" stop-color="#ED3127"/>
<stop offset="0.192826" stop-color="#7E5C78"/>
<stop offset="0.249249" stop-color="#0F86C8"/>
<stop offset="0.326217" stop-color="#134686"/>
</linearGradient>
<linearGradient id="paint2_linear_89_1919" x1="12.4325" y1="25.7392" x2="27.9108" y2="7.88202" gradientUnits="userSpaceOnUse">
<stop offset="0.459783" stop-color="#134686"/>
<stop offset="0.547518" stop-color="#803C57"/>
<stop offset="0.745699" stop-color="#ED3127"/>
</linearGradient>
</defs>
</svg>
