<svg width="38" height="38" viewBox="0 0 38 38" fill="none" xmlns="http://www.w3.org/2000/svg">
<g filter="url(#filter0_dd_51_2273)">
<rect x="3.1" y="2.1" width="31.8" height="31.8" rx="7.9" fill="white"/>
<rect x="3.1" y="2.1" width="31.8" height="31.8" rx="7.9" fill="url(#paint0_linear_51_2273)"/>
<rect x="3.1" y="2.1" width="31.8" height="31.8" rx="7.9" stroke="#A1A0B8" stroke-width="0.2"/>
<path d="M18.4379 14.4997C22.7939 12.7672 27.5576 14.1354 29.7206 16.2302C30.1894 16.684 30.5874 17.1444 30.9283 17.6021C31.1228 16.5276 31.1386 15.4574 30.9515 14.4224C30.268 10.6434 26.7028 8.50251 23.5066 9.60838C20.3248 10.7093 19.0838 12.849 19.0838 12.849C19.0838 12.849 17.8428 10.7093 14.661 9.60838C11.4646 8.50251 7.89939 10.6436 7.21616 14.4224C6.71177 17.2113 7.66692 20.2561 9.69369 22.9467C10.1206 23.0901 10.568 23.1978 11.042 23.2599C13.8812 23.6332 14.9018 22.8739 16.1012 22.3655C16.8976 22.0282 17.4967 22.4111 17.4677 22.6795C17.4225 23.0955 15.8527 23.8064 16.1893 23.9557C17.5184 24.5454 19.1552 24.5503 20.3886 23.4969C21.9214 22.1881 22.4948 23.0828 22.4948 23.0828C22.4948 23.0828 21.7336 25.0245 19.4415 25.9886C17.5291 26.793 15.5252 26.9912 13.6941 26.7852C15.2734 27.9015 17.0868 28.8373 19.0838 29.5052C24.7932 27.5953 29.0109 23.504 30.4979 19.2265C29.4905 18.2326 28.255 17.6165 26.7822 17.3932C23.9508 16.9639 22.9155 17.7032 21.7062 18.1877C20.9032 18.5095 20.3118 18.1147 20.3463 17.8468C20.3995 17.4317 21.9833 16.752 21.6495 16.5959C20.3324 15.9802 18.6959 15.9429 17.4419 16.9717C15.8836 18.2501 15.328 17.3443 15.328 17.3443C15.328 17.3443 16.1272 15.4184 18.4379 14.4997ZM17.3543 19.8221H18.4542V18.7221H19.713V19.8221H20.8129V21.0808H19.713V22.1808H18.4542V21.0808H17.3543V19.8221Z" fill="url(#paint1_linear_51_2273)"/>
<path d="M17.3543 19.8221H18.4542V18.7221H19.713V19.8221H20.8129V21.0808H19.7212C21.3431 21.9004 24.3217 23.1196 27.9011 23.6621C29.079 22.2687 29.9647 20.7598 30.4977 19.2265C29.4903 18.2326 28.2547 17.6165 26.782 17.3932C23.9505 16.964 22.9153 17.7032 21.7059 18.1877C20.9029 18.5095 20.3116 18.1147 20.3461 17.8468C20.3993 17.4317 21.9831 16.7521 21.6492 16.5959C20.3322 15.9802 18.6957 15.9429 17.4417 16.9718C15.8834 18.2501 15.3277 17.3443 15.3277 17.3443C15.3277 17.3443 16.1272 15.4182 18.4377 14.4992C22.7936 12.7668 27.5573 14.1349 29.7204 16.2297C30.1891 16.6835 30.5872 17.144 30.9281 17.6016C31.1225 16.5271 31.1384 15.4569 30.9513 14.4219C30.2678 10.6429 26.7026 8.50205 23.5064 9.60792C20.3246 10.7088 19.0836 12.8485 19.0836 12.8485C19.0836 12.8485 17.8426 10.7088 14.6608 9.60792C12.8353 8.9762 10.8901 9.40523 9.42957 10.5921C10.1156 12.0611 10.9194 13.4337 13.2088 16.1943C15.0702 18.4391 17.3543 19.8221 17.3543 19.8221Z" fill="url(#paint2_linear_51_2273)"/>
<rect x="18.452" y="18.7137" width="1.28038" height="3.46819" fill="#FEB21A"/>
<rect x="17.34" y="21.0858" width="1.27603" height="3.48" transform="rotate(-90 17.34 21.0858)" fill="#FEB21A"/>
</g>
<defs>
<filter id="filter0_dd_51_2273" x="0" y="0" width="38" height="38" filterUnits="userSpaceOnUse" color-interpolation-filters="sRGB">
<feFlood flood-opacity="0" result="BackgroundImageFix"/>
<feColorMatrix in="SourceAlpha" type="matrix" values="0 0 0 0 0 0 0 0 0 0 0 0 0 0 0 0 0 0 127 0" result="hardAlpha"/>
<feOffset dy="1"/>
<feGaussianBlur stdDeviation="1"/>
<feColorMatrix type="matrix" values="0 0 0 0 0.0627451 0 0 0 0 0.0941176 0 0 0 0 0.156863 0 0 0 0.06 0"/>
<feBlend mode="normal" in2="BackgroundImageFix" result="effect1_dropShadow_51_2273"/>
<feColorMatrix in="SourceAlpha" type="matrix" values="0 0 0 0 0 0 0 0 0 0 0 0 0 0 0 0 0 0 127 0" result="hardAlpha"/>
<feOffset dy="1"/>
<feGaussianBlur stdDeviation="1.5"/>
<feColorMatrix type="matrix" values="0 0 0 0 0.0627451 0 0 0 0 0.0941176 0 0 0 0 0.156863 0 0 0 0.1 0"/>
<feBlend mode="normal" in2="effect1_dropShadow_51_2273" result="effect2_dropShadow_51_2273"/>
<feBlend mode="normal" in="SourceGraphic" in2="effect2_dropShadow_51_2273" result="shape"/>
</filter>
<linearGradient id="paint0_linear_51_2273" x1="19" y1="2" x2="19" y2="34" gradientUnits="userSpaceOnUse">
<stop stop-color="#9D9CB5"/>
<stop offset="1" stop-color="white"/>
</linearGradient>
<linearGradient id="paint1_linear_51_2273" x1="12.7033" y1="26.5516" x2="27.9181" y2="7.89481" gradientUnits="userSpaceOnUse">
<stop offset="0.0947764" stop-color="#ED3127"/>
<stop offset="0.192826" stop-color="#7E5C78"/>
<stop offset="0.249249" stop-color="#0F86C8"/>
<stop offset="0.326217" stop-color="#134686"/>
</linearGradient>
<linearGradient id="paint2_linear_51_2273" x1="12.4325" y1="25.7392" x2="27.9108" y2="7.88202" gradientUnits="userSpaceOnUse">
<stop offset="0.459783" stop-color="#134686"/>
<stop offset="0.547518" stop-color="#803C57"/>
<stop offset="0.745699" stop-color="#ED3127"/>
</linearGradient>
</defs>
</svg>
